PathFileType	4	(X/Y/Z)	c:/Users/goper/Files/vsCode/490R/osim_files/C12/C12_ROM.trc
DataRate	CameraRate	NumFrames	NumMarkers	Units                	OrigDataRate	OrigDataStartFrame	OrigNumFrames
120.00	120.00	8	36	mm	120.0	239	1911
                Frame#	Time	LPSIS			LASIS			LTH1			LTH2			LTH3			LTH4			LLFE			LMFE			LSH1			LSH2			LSH3			LSH4			LLMAL			LMMAL			LCAL			LMTP5			LTOE			LMTP1			RPSIS			RASIS			RTH1			RTH2			RTH3			RTH4			RLFE			RMFE			RSH1			RSH2			RSH3			RSH4			RLMAL			RMMAL			RCAL			RMTP1			RTOE			RMTP5		
		X1	Y1	Z1	X2	Y2	Z2	X3	Y3	Z3	X4	Y4	Z4	X5	Y5	Z5	X6	Y6	Z6	X7	Y7	Z7	X8	Y8	Z8	X9	Y9	Z9	X10	Y10	Z10	X11	Y11	Z11	X12	Y12	Z12	X13	Y13	Z13	X14	Y14	Z14	X15	Y15	Z15	X16	Y16	Z16	X17	Y17	Z17	X18	Y18	Z18	X19	Y19	Z19	X20	Y20	Z20	X21	Y21	Z21	X22	Y22	Z22	X23	Y23	Z23	X24	Y24	Z24	X25	Y25	Z25	X26	Y26	Z26	X27	Y27	Z27	X28	Y28	Z28	X29	Y29	Z29	X30	Y30	Z30	X31	Y31	Z31	X32	Y32	Z32	X33	Y33	Z33	X34	Y34	Z34	X35	Y35	Z35	X36	Y36	Z36

239	1.98333	-345.32516	1060.78247	483.73737	-175.65434	967.23260	451.58441	-303.95547	747.22571	357.36716	-302.00171	703.98181	348.26831	-242.09901	746.12231	355.79315	-248.11536	702.53461	347.03656	-270.80090	523.22949	334.06848	-274.27689	481.66943	456.15494	-332.62503	443.41263	292.95020	-329.44598	400.97916	270.78058	-272.14178	442.13095	293.47302	-277.99533	398.76135	273.94315	-294.23807	105.45854	211.73569	-277.26550	98.69222	290.97418	-351.43805	68.06428	246.79189	-160.75415	48.36380	169.21609	-107.11293	79.95153	234.77286	-131.12808	46.77961	276.84024	-365.65320	1087.17432	594.21771	-210.26512	1028.31433	698.30164	-327.40118	767.64087	769.17926	-324.40805	721.90973	765.66663	-265.53467	763.77753	774.72766	-272.10825	716.82758	771.86377	-325.47391	537.13538	737.24982	-306.28329	529.61792	603.85046	-384.83569	431.70966	750.25366	-378.24792	389.55167	759.03857	-322.59464	434.95462	756.17944	-326.74258	392.72467	765.22998	-307.62073	95.82140	733.89648	-280.70398	117.72144	657.42865	-364.44464	56.76910	679.49951	-147.16885	67.92699	658.61792	-113.06763	86.72377	699.53546	-148.53400	42.10363	763.16968
240	1.99167	-343.14746	1059.50134	485.49493	-172.45059	967.29010	453.81485	-300.23004	747.07538	359.98911	-298.12756	703.80505	350.72437	-238.17770	746.09320	358.51059	-244.26216	702.44202	349.55627	-266.83316	523.26758	335.87244	-270.47107	481.46829	457.81296	-329.23495	443.81180	294.42371	-326.54007	401.37509	272.05246	-268.86288	442.00098	294.85608	-275.01953	398.74707	275.22171	-293.82462	105.65668	211.96742	-276.83975	98.62534	291.27005	-351.21799	68.29768	246.88490	-160.64328	48.07624	169.35471	-106.78763	79.25698	235.06694	-131.06633	46.09282	277.00766	-363.76471	1086.22034	595.84296	-207.79817	1029.25623	700.33362	-325.10385	767.96606	771.26971	-322.16336	722.20935	767.67578	-263.31555	763.98163	776.99237	-269.72424	717.09827	774.11450	-324.12967	537.23761	739.23871	-304.27304	529.83191	605.95367	-383.52298	431.88843	751.95862	-376.87772	389.58783	760.65729	-321.00522	434.85471	757.78271	-325.23740	392.65088	766.70807	-307.36542	95.66843	734.39136	-280.38681	117.74992	657.87170	-364.29529	57.09365	679.83801	-146.96896	67.32584	658.61340	-112.70840	85.70264	699.38934	-148.16733	41.49163	763.38318
241	2.00000	-340.87158	1058.21448	487.25418	-169.20967	967.37946	455.92444	-296.36606	746.96021	362.44870	-294.14441	703.80322	353.11789	-234.21750	746.09729	361.11841	-240.27609	702.48920	352.09790	-262.86810	523.35016	337.63510	-266.89148	481.17685	459.26254	-325.91025	444.11136	295.74869	-323.42593	401.82248	273.28616	-265.54709	441.89304	296.20129	-272.05341	398.73410	276.42368	-293.35114	105.89898	212.24933	-276.55533	98.55866	291.48422	-351.04379	68.64246	246.99150	-160.48199	47.81575	169.45821	-106.48126	78.67729	235.24141	-130.90189	45.45755	277.16669	-361.73260	1085.19836	597.49188	-205.31003	1030.11194	702.09729	-322.63004	768.23969	773.09320	-319.72339	722.46478	769.58276	-260.71338	764.28589	779.12769	-267.31766	717.34644	776.11810	-322.31967	537.27325	740.99615	-302.12448	530.03351	607.80621	-381.80441	431.96762	753.57458	-375.41821	389.77774	762.11261	-319.33414	434.80933	759.12817	-323.71204	392.58356	768.04065	-306.95865	95.53922	734.78552	-280.03250	117.70646	658.26227	-364.12625	57.43438	680.11462	-146.73753	66.76105	658.53955	-112.44916	84.57661	699.13416	-147.92015	40.79683	763.47394
242	2.00833	-338.35577	1056.97900	488.91351	-165.81837	967.60413	457.92316	-292.32007	746.90912	364.75058	-290.03369	703.83093	355.38470	-230.23059	746.08527	363.54578	-236.12962	702.50275	354.45026	-258.75827	523.39752	339.38379	-263.09302	480.92776	460.73111	-322.48187	444.43597	297.14587	-320.15994	402.40393	274.29837	-262.01025	441.68851	297.43008	-268.76950	398.82587	277.89542	-292.84006	106.12718	212.52678	-276.27560	98.48238	291.73322	-350.78113	68.99661	247.14198	-160.30502	47.54417	169.58151	-106.17384	77.95003	235.46524	-130.79193	44.85362	277.28351	-359.47653	1084.17529	599.04950	-202.67142	1030.98022	703.85999	-319.93903	768.46851	774.79144	-317.25992	722.81964	771.36920	-258.10718	764.47577	780.86121	-264.62949	717.54535	777.90826	-320.17584	537.38544	742.53333	-299.96909	530.20233	609.51630	-380.05267	432.10648	755.07391	-373.78827	389.74481	763.43420	-317.51483	434.68936	760.37177	-322.03146	392.45453	769.23993	-306.51718	95.42252	735.08380	-279.71567	117.57699	658.51544	-363.92926	57.70171	680.33942	-146.44727	65.94942	658.42035	-112.03595	83.50990	698.80951	-147.56873	40.14579	763.49554
243	2.01667	-335.89865	1055.60889	490.36444	-162.35527	967.78668	459.74762	-288.15125	746.81348	367.07162	-285.88287	703.74084	357.53253	-226.18330	746.10657	365.86139	-231.94386	702.50494	356.67072	-254.60461	523.39203	341.16385	-258.13205	480.48367	462.46182	-318.83051	444.73526	298.36505	-316.91095	402.75131	275.42389	-258.37952	441.52042	298.69641	-265.61240	398.69455	278.97504	-292.31802	106.33875	212.79190	-275.93759	98.36575	291.97992	-350.43433	69.34522	247.29280	-160.11858	47.19405	169.71065	-105.92435	77.28107	235.60559	-130.63133	44.22359	277.39307	-357.34122	1082.98340	600.39404	-200.00212	1031.70166	705.52539	-317.09369	768.47882	776.37738	-314.25482	722.79553	772.68488	-255.20795	764.52808	782.58612	-261.75845	717.64453	779.50726	-317.89291	537.38440	743.93536	-297.73224	530.36823	610.97278	-378.22757	432.19281	756.38068	-371.94101	389.78232	764.63440	-315.61734	434.56937	761.44495	-320.27698	392.25943	770.18317	-306.10547	95.29829	735.25635	-279.35379	117.41534	658.68073	-363.66806	57.97758	680.54688	-146.26726	64.95658	658.14160	-111.68454	82.25622	698.45618	-147.17720	39.61775	763.42987
244	2.02500	-333.18741	1054.33850	491.69876	-158.77773	968.08954	461.40091	-283.79913	746.86176	369.18015	-281.62109	703.70789	359.64709	-222.00327	746.15381	367.95657	-227.70712	702.52411	358.70667	-250.24738	523.45978	342.83347	-254.30124	480.31223	463.81464	-315.00613	445.06204	299.60556	-313.59698	403.11414	276.48053	-254.50694	441.33530	299.89990	-262.30630	398.55515	280.03009	-291.81879	106.56905	213.03830	-275.51263	98.37594	292.31357	-350.11246	69.75817	247.42932	-160.00232	46.85478	169.81032	-105.62491	76.62310	235.70966	-130.53296	43.65578	277.46967	-354.94678	1081.80469	601.64325	-197.19778	1032.34021	707.06604	-314.08627	768.65521	777.89661	-311.25702	723.00031	774.33063	-252.49237	764.57336	783.87256	-258.81500	717.71301	780.71991	-315.56604	537.46631	745.17242	-295.48929	530.54553	612.25348	-376.16904	432.22766	757.50909	-370.22226	389.87985	765.72003	-313.74646	434.37207	762.41772	-318.48831	392.15497	771.13147	-305.67987	95.24500	735.33514	-278.92108	117.20770	658.75354	-363.35507	58.31569	680.65576	-145.96297	63.96908	657.93921	-111.16536	81.01754	697.93768	-146.53233	39.01955	762.57690
245	2.03333	-330.61844	1052.96484	492.98923	-155.12311	968.51593	462.78012	-279.72757	746.70886	371.08188	-277.42322	703.52545	361.58029	-217.72768	746.12054	369.86722	-223.44434	702.57367	360.51584	-245.86224	523.51392	344.54056	-250.14787	480.24033	465.13394	-311.13696	445.39746	300.80124	-309.91721	403.85001	277.64352	-250.85118	441.06778	301.18805	-258.91229	398.47681	281.17511	-291.40170	106.84998	213.26436	-275.13730	98.40237	292.56815	-349.67325	70.17307	247.46544	-159.80649	46.55974	169.85254	-105.34945	76.04565	235.78932	-130.41498	43.07762	277.56253	-352.62875	1080.44763	602.87964	-194.35455	1033.03491	708.41870	-311.04785	768.72235	779.17072	-308.18069	723.01215	775.19861	-249.24832	764.68182	785.15839	-255.62839	717.85254	781.81537	-313.19989	537.51105	746.17865	-293.08862	530.79639	613.19086	-374.47067	432.38193	758.31171	-368.41333	389.97736	766.44580	-311.91431	434.29010	763.14252	-316.66388	392.08157	771.77808	-305.13397	95.28590	735.27954	-278.44513	116.96980	658.64856	-363.04755	58.61421	680.63043	-145.69055	62.84345	657.55212	-110.71786	79.60222	697.41089	-146.15845	38.55085	762.39978
246	2.04167	-327.75372	1051.66833	494.15887	-151.34911	969.00665	464.01660	-275.19638	746.73108	372.83398	-272.92474	703.51605	363.24908	-213.36617	746.24170	371.58643	-219.00597	702.60199	362.23343	-241.34830	523.57739	346.21915	-245.79385	480.31171	466.49091	-307.25867	445.79825	302.03552	-306.26419	404.36288	278.66364	-246.98932	440.86258	302.45389	-255.42155	398.32584	282.24542	-290.83887	107.24047	213.44925	-274.65384	98.50562	292.81482	-349.22379	70.51485	247.51294	-159.58891	46.25726	169.90701	-105.01687	75.42131	235.79340	-130.27162	42.53303	277.62024	-349.97162	1079.19373	603.99683	-191.29065	1033.83362	709.59277	-307.73395	768.87128	780.14624	-304.86450	723.12921	776.07861	-245.96484	764.78180	786.04468	-252.54688	717.88831	782.53137	-310.73935	537.60297	746.95923	-290.69052	531.05029	614.10498	-372.34924	432.53232	758.94757	-366.58282	390.09412	767.02789	-309.96768	434.21304	763.70508	-314.92606	392.00589	772.30432	-304.57999	95.39616	735.10205	-278.01920	116.70029	658.40021	-362.81726	58.91707	680.57928	-145.37779	61.72564	657.24384	-110.20502	78.48682	696.83099	-145.80779	38.15896	762.14679
